<svg width="486" height="30" viewBox="0 0 486 30" fill="none" xmlns="http://www.w3.org/2000/svg">
<path d="M2 2C26.1085 2 26.1085 28 50.217 28C74.3255 28 74.3255 2 98.4339 2C122.542 2 122.542 28 146.594 28C170.704 28 170.704 2 194.755 2C218.864 2 218.864 28 242.915 28C267.024 28 267.024 2 291.131 2C315.24 2 315.24 28 339.349 28C363.457 28 363.457 2 387.566 2C411.675 2 411.675 28 435.784 28C459.891 28 459.891 2 484 2" stroke="white" stroke-opacity="0.55" stroke-width="3" stroke-miterlimit="10" stroke-linecap="round"/>
</svg>
